/* XPM */
static char const * BBB_SHIP_ICON_xpm[] = {
/* columns rows colors chars-per-pixel */
"128 128 58 1 ",
"  c #000000",
". c #020609",
"X c #040A0E",
"o c #050D12",
"O c #061017",
"+ c #07121A",
"@ c #08151E",
"# c #091721",
"$ c #0A1A24",
"% c #0B1D2A",
"& c #0D202E",
"* c #0E2433",
"= c #0F2738",
"- c #0F2839",
"; c #112B3D",
": c #112E41",
"> c #123045",
", c #15364D",
"< c #163A53",
"1 c #183E5A",
"2 c #19415D",
"3 c #1B4562",
"4 c #1C4867",
"5 c #1D4C6C",
"6 c #1E4F70",
"7 c #1F5173",
"8 c #205376",
"9 c #21567A",
"0 c #22597F",
"q c #235C83",
"w c #255F88",
"e c #26628C",
"r c #276692",
"t c #286793",
"y c #296996",
"u c #2A6D9C",
"i c #2B709F",
"p c #2C72A3",
"a c #2E77A9",
"s c #2F7AAD",
"d c #317EB3",
"f c #3280B7",
"g c #3384BC",
"h c #3487C1",
"j c #3589C4",
"k c #378ECB",
"l c #3890CE",
"z c #3994D3",
"x c #3A97D8",
"c c #3C9BDC",
"v c #3D9EE1",
"b c #3FA2E7",
"n c #3FA4E9",
"m c #40A6ED",
"M c #41A8EF",
"N c #41A9F2",
"B c #44AFFA",
"V c #44B0FB",
/* pixels */
"@XXXoXXXXoXXXXXXoXXXXXXoXXXXXoXXXoXXXXXXoXXXXXXoXXXXXoXXXoXXXXXXoXXXXXXoXXXXXoXXXoXXXXXXoXXXXXXoXXXXXoXXXoXXXXXXoXXXXXXoXXXXoXX@",
".                                                                                                                              .",
"o                                                                                                                              o",
"X   XXoXXXXXXoXXXXoXoXXXXXXooXXXXXXXXoXXXXoXoXXXXXXooXXXXXXXXoXXXXoXoXXXXXXooXXXXXXoXoXXXXoXoXXXXXXooXXXXXXXXoXXXXoXoXXXXXXX   X",
"X  XxmnnnnnnnnnnnnnnnnnnnnnnbnnnnnnnnnnnnnnnnnnnnnnnbnnnnnnnnnnnnnnnnnnnnnnnbnnnnnnnnnnnnnnnnnnnnnnnbnnnnnnnnnnnnnnnnnnnnnmzX  X",
"X  omVVVVVVVVVVVVVVVVVVVVVVVVVVVVVVVVVVVVVVVVVVVVVVVVVVVVVVVVVVVVVVVVVVVVVVVVVVVVVVVVVVVVVVVVVVVVVVVVVVVVVVVVVVVVVVVVVVVVVVmX  X",
"X  XnVVVVVVVVVVVVVVVVVVVVVVVVVVVVVVVVVVVVVVVVVVVVVVVVVVVVVVVVVVVVVVVVVVVVVVVVVVVVVVVVVVVVVVVVVVVVVVVVVVVVVVVVVVVVVVVVVVVVVVbX  X",
"o  XnVVVVVVVVVVVVVVVVVVVVVVVVVVVVVVVVVVVVVVVVVVVVVVVVVVVVVVVVVVVVVVVVVVVVVVVVVVVVVVVVVVVVVVVVVVVVVVVVVVVVVVVVVVVVVVVVVVVVVVbX  o",
"X  XnVVVVVVVVVVVVVVVVVVVVVVVVVVVVVVVVVVVVVVVVVVVVVVVVVVVVVVVVVVVVVVVVVVVVVVVVVVVVVVVVVVVVVVVVVVVVVVVVVVVVVVVVVVVVVVVVVVVVVVbX  X",
"X  XnVVVVVVVVVVVVVVVVVVVVVVVVVVVVVVVVVVVVVVVVVVVVVVVVVVVVVVVVVVVVVVVVVVVVVVVVVVVVVVVVVVVVVVVVVVVVVVVVVVVVVVVVVVVVVVVVVVVVVVbX  X",
"X  XnVVVVVVVVVVVVVVVVVVVVVVVVVVVVVVVVVVVVVVVVVVVVVVVVVVVVVVVVVVVVVVVVVVVVVVVVVVVVVVVVVVVVVVVVVVVVVVVVVVVVVVVVVVVVVVVVVVVVVVbX  o",
"X  onVVVVVVVVVVVVVVVVVVVVVVVVVVVVVVVVVVVVVVVVVVVVVVVVVVVVVVVVVVVVVVVVVVVVVVVVVVVVVVVVVVVVVVVVVVVVVVVVVVVVVVVVVVVVVVVVVVVVVVbX  X",
"X  obVVVVVVVVVVVVVVVVVVVVVVVVVVVVVVVVVVVVVVVVVVVVVVVVVVVVVVVVVVVVVVVVVVVVVVVVVVVVVVVVVVVVVVVVVVVVVVVVVVVVVVVVVVVVVVVVVVVVVVbX  X",
"o  XnVVVVVVVVVVVVVVVVVVVVVVVVVVVVVVVVVVVVVVVVVVVVVVVVVVVVVVVVVVVVVVVVVVVVVVVVVVVVVVVVVVVVVVVVVVVVVVVVVVVVVVVVVVVVVVVVVVVVVVbX  X",
"X  XnVVVVVVVVVVVVVVVVVVVVVVVVVVVVVVVVVVVVVVVVVVVVVVVVVVVVVVVVVVVVVVVVVVVVVVVVVVVVVVVVVVVVVVVVVVVVVVVVVVVVVVVVVVVVVVVVVVVVVVbX  X",
"X  XnVVVVVVVVVVVVVVVVVVVVVVVVVVVVVVVVVVVVVVVVVVVVVVVVVVVVVVVVVVVVVVVVVVVVVVVVVVVVVVVVVVVVVVVVVVVVVVVVVVVVVVVVVVVVVVVVVVVVVVbX  o",
"X  XnVVVVVVVVVVVVVVVVVVVVVVVVVVVVVVVVVVVVVVVVVVVVVVVVVVVVVVVVVVVVVVVVVVVVVVVVVVVVVVVVVVVVVVVVVVVVVVVVVVVVVVVVVVVVVVVVVVVVVVbX  X",
"o  XnVVVVVVVVVVVVVVVVVVVVVVVVVVVVVVVVVVVVVVVVVVVVVVVVVVVVVVVVVVVVVVVVVVVVVVVVVVVVVVVVVVVVVVVVVVVVVVVVVVVVVVVVVVVVVVVVVVVVVVbX  X",
"X  XnVVVVVVVVVVVVVVVVVVVVVVVVVVVVVVVVVVVVVVVVVVVVVVVVVVVVVVVVVVVVVVVVBVVVVVVVBBVVVVVVVVVVVVVVVVVVVVVVVVVVVVVVVVVVVVVVVVVVVVbX  X",
"X  XnVVVVVVVVVVVVgq0000q0009uNVVVVVVVVVVVVVVVVVVVVVVVVVze000000q000000q000q9uBVVVVVVVVVVVVVVVVVVVVVVVVVVVVVVVVVVVVVVVVVVVVVbX  o",
"X  XnVVVVVVVVVVBs+          .7BVVVVVVVVVVVVVVVVVVVVVVVc;                    X9BVVVVVVVVVVVVVVVVVVVVVVVVVVVVVVVVVVVVVVVVVVVVbX  X",
"X  onVVVVVVVVVVm$             5VVVVVVVVVVVVVVVVVVVVVVV<                       5VVVVVVVVVVVVVVVVVVVVVVVVVVVVVVVVVVVVVVVVVVVVbX  X",
"X  XnVVVVVVVVVVzX              eBBVVVVVVVVVVVVVVVVVVVcX                        yVVVVVVVVVVVVVVVVVVVVVVVVVVVVVVVVVVVVVVVVVVVbX  X",
"X  XbVVVVVVVVVVm%               gVVVVVVVVVVVVVVVVVVVVu                         .iVVVVVVVVVVVVVVVVVVVVVVVVVVVVVVVVVVVVVVVVVVbX  o",
"o  XnVVVVVVVVVVV9     #%%%#     +lVVVVVVVVVVVVVVVVVVV<    o%%%$$%%%$%%$%%%@     XhVVVVVVVVVVVVVVVVVVVVVVVVVVVVVVVVVVVVVVVVVbX  X",
"X  XnVVVVVVVVVVVzX    ymnnb<     *vBVVVVVVVVVVVVVVVVvo    pmmmbmnbbbbbbbbbv<     +jVVVVVVVVVVVVVVVVVVVVVVVVVVVVVVVVVVVVVVVVbX  X",
"X  onVVVVVVVVVVVB,    ,BVVVv*     <NVVVVVVVVVVVVVVVVu    #mVBBBBVVVVVVVVVVVn*     %bVVVVVVVVVVVVVVVVVVVVVVVVVVVVVVVVVVVVVVVbX  X",
"X  XnVVVVVVVVVVVVa     jVVVVz@     6VVVVVVVVVVVVVVVV<    3BVBBBBVVVVVVVVVVVVc*     =vVVVVVVVVVVVVVVVVVVVVVVVVVVVVVVVVVVVVVVbX  o",
"X  onVVVVVVVVVVVVB$    5VVVVBf      eVVVVVVVVVVVVVVco    sVVVVVVVVVVVVVVVVVVVlo     ,BBBVVVVVVVVVVVVVVVVVVVVVVVVVVVVVVVVVVVbX  X",
"X  XnVVVVVVVVVVVVV0    +vVVVVVu     XdVBVVVVVVVVVVVu    #mVVVVVVVVVVVVVVVVVVVVgo     2BVVVVVVVVVVVVVVVVVVVVVVVVVVVVVVVVVVVVbX  X",
"X  XnVVVVVVVVVVVVVxX    iVVVVVV8     ozBVVVVVVVVVVV<    3VVVVVVVVVVVVVVVVVVVVVVp      8VVVVVVVVVVVVVVVVVVVVVVVVVVVVVVVVVVVVbX  X",
"o  XnVVVVVVVVVVVVVV,    ;BVVVVVV>     %nVVVVVVVVVVc+    sVVVVVVVVVVVVVVVVVVVVVVVu      yVVVVVVVVVVVVVVVVVVVVVVVVVVVVVVVVVVVbX  o",
"X  XnVVVVVVVVVVVVVVs     kBVVVVVm*     <NVVVVVVVVVi    #mVVVVVVVVVVVVVVVVVVVVVVVV6      sVVVVVVVVVVVVVVVVVVVVVVVVVVVVVVVVVVbX  X",
"X  XnVVVVVVVVVVVVVVB&    qVVVVVVVx%     7BVVVVVVVB<    5VVVVVVVVVVVBVVVVVVVVVVVVVV5     ogVVVVVVVVVVVVVVVVVVVVVVVVVVVVVVVVVbX  X",
"X  XnVVVVVVVVVVVVVVv#    $<,,,,<,2#      :<,<,,,,,o    &<,,,,,,<,,<,,,<,,<,,,<<,,<<      oxVVVVVVVVVVVVVVVVVVVVVVVVVVVVVVVVbX  X",
"X  onVVVVVVVVVVVVBB,                                                                      *cVVVVVVVVVVVVVVVVVVVVVVVVVVVVVVVbX  o",
"X  obVVVVVVVVVVVVVt                                                                        *mVVVVVVVVVVVVVVVVVVVVVVVVVVVVVVbX  X",
"o  XnVVVVVVVVVVVVzX                                                                         <mVVVVVVVVVVVVVVVVVVVVVVVVVVVVVbX  X",
"X  XnVVVVVVVVVVVB:                       .          .                                        2VVVVVVVVVVVVVVVVVVVVVVVVVVVVVbX  X",
"X  XnVVVVVVVVVVVe     >hjhjjjhjhjhjhjjjhhhhhjhjjhhjhhjhhjjjhjjjhjhjjhjjhjhjjhhjjjhjjhhky.     eVVVVVVVVVVVVVVVVVVVVVVVVVVVVbX  o",
"X  XnVVVVVVVVVVzo    ozVVVVVVVVVVVVVVVVVVVVVVVVVVVVVVVVVVVVVVVVVVVVVVVVVVVVVVVVVVVVVVVVVr      yVVVVVVVVVVVVVVVVVVVVVVVVVVVbX  X",
"o  XnVVVVVVVVVV>     rVVVVVVVVVVVVVVVVVVVVVVVVVVVVVVVVVVVVVVVVVVVVVVVVVVVVVVVVVVVVVVVVVVB6     .sVVVVVVVVVVVVVVVVVVVVVVVVVVbX  X",
"X  XnVVVVVVVBBe     >BVVVVVVVVVVVVVVVVVVVVVVVVVVVVVVVVVVVVVVVVVVVVVVVVVVVVVVVVVVVVVVVVVVVV3     XjVVVVVVVVVVVVVVVVVVVVVVVVVbX  X",
"X  XnVVVVxzzzg+    ozVVVVVVVVVVVVVVVVVVVVVVVVVVVVVVVVVVVVVVVVVVVVVVVVVVVVVVVVVVVVVVVVVVVVVm,     $jzzzzzzzzzzzzzzzzzzzmVVVVbX  o",
"X  XbVVj<o...      yVVVVVVVVVVVVVVVVVVVVVVVVVVVVVVVVVVVVVVVVVVVVVVVVVVVVVVVVVVVVVVVVVVVVVVVN>      ..... .......... ..&7cVVbX  X",
"X  omVeX          ,BBVBBBBBBBBBBBBBBBBBBBBBBBBBBBBBBBVBBBBBBBBBBBBBBVBBBBBBBBBBBBBBBBBBBBBBV9                           #uVbX  X",
"X  Xny            %:;;;;;;;;;;;;;;;;;;;;;;;;;;:;;;;;;;;;;;;;;;;;;;;;;;;;;;;;;;;;;;;;;;;;;;;;X                             ebX  X",
"X  XjX                                                                                                                    XgX  o",
"o  X2     o::>o                                                                                 &::;:-:;:-:::-::>;::-.     >X  X",
"X  X+    ,xVVV5                                                                                %bVVVVBVVVBBVVBBBVVVVVl>    XX  X",
"X  oX   ozVVVVd     .XXXXXXXXXX.XXXX.XXXXXXXXXX.XXX..XXXXXXXXXX.XXXXX.XXXXX..XXXXXXXXXXXo      gBBVVVVVVVVVVVVVVVVVVVVj    oX  X",
"X  Xo   %MVVVVM%    8zkkkkkkkkkkkkkkkkkkkkkkkkkkkkkkkkkkkkkkkkkkkkkkkkkkkkkkkkkkkkkkkkkz1     6VVVVVVVVVVVVVVVVVVVVVVVf    XX  o",
"X  XX   %mVVVVV5    <VVVVVVVVVVVVVVVVVVVVVVVVVVVVVVVVVVVVVVVVVVVBBVVVVVVVVVVVVVVVVVVVVVko    %mVVVVVVVVVVVVVVVVVVVVVVV7    @X  X",
"o  Xo   %nVVVVVd    ozVVVVVVVVVVVVVVVVVVVVVVVVVVVVVVVVVVVVVVVVVVVVVVVVVVVVVVVVVVVVVVVVN*     dVVVVVVVNVVVVVnBBVVVVVVBB*    5X  X",
"X  Xo   %mVVVVVm$    yVVVVVVVVVVVVVVVVVVVVVVVVVVVVVVVVVVVVVVVVVVVVVVVVVVVVVVVVVVVVVVVV0     5VVVVVVv<&3nVVy*;kVVVVVVBzo   .fX  X",
"X  XX   %nVVVVVV5    ,VVVVVVVVVVVVVVVVVVVVVVVVVVVVVVVVVVVVVVVVVVVVVVVVVVVVVVVVVVVVVVVjX    %nVVVVVVi   kVbX  qVVVVVVVu    %cX  o",
"X  XX   &nVVVVVVd    oxBBVVVVVVBVVVVVVVBVBVVVVVBVVVVVVVBVBVVVVVBVBBBVBBBVVVVVVVVVVVVN=     fVVVVVVVp   xVNX  qVVVVVVB>    2bX  X",
"X  oo   %nVVVVVVN#    yBMMmNmNNMNMmNmNNMNMMNmNNMNMmNmNNMNMMNmNNMNMNNNMNNMNmNNmMNmNNN9     7VVVVVVVVi   6zw   qVVVVVVzX    sbX  X",
"X  XX   %nVVVVVVV5    +=************************************************************     %nVVVVVVVVp    .    9VVVVVVw    @bbX  X",
"X  Xo   %nVVVVVVVf                                                                       fVVVVVVVVVc#        dVVVVBm$    5BbX  o",
"o  Xo   &nVVVVVVVM+                                                                     7VVVVVVVVVVVz3<,,<,<sVVVVVVp     gVbX  X",
"X  Xo   %nVVVVVVVV8                                                                    &mBVVVVVVVVVVVVVVVVBVBVVVVVB:    ;BVbX  X",
"X  oX   %nVVVVVVVVm,X.X.X.X.X.X.X.X.X.X.X.X.X.X.X.X.X.X.X.X.X.X..XX.X..XX.X..XX.X..XX.*zVVVVVVVVVVVVVVVVVVVVVVVVVVa     pVVbX  X",
"X  XX   %mVVVVVVVVBBvvvvvvvvvvvvvvvvvvvvvvvvvvvvvvvvvvvvvvvvvvvvvvvvvvvvvvvvvvvvvvvvvvNVVVVVVVVVVVVVVVVVVVVVVVVVVB*    $NVVbX  o",
"X  Xo   %mVVVVVVVVVVVVVVVVVVVVVVVVVVVVVVVVVVVVVVVVVVVVVVVVVVVVVVVVVVVVVVVVVVVVVVVVVVVVVVVVVVVVVVVVVVVVVVVVVVVVVVVu     yVVVbX  X",
"o  XX   %mVVVVVVVVVVVVVVVVVVVVVVVVVVVVVVVVVVVVVVVVVVVVVVVVVVVVVVVVVVVVVVVVVVVVVVVVVVVVVVVVVVVVVVVVVVVVVVVVVVVVVVc+    &NVVVbX  X",
"X  XX   +cVVVVVVVVVVVVVVVVVVVVVVVVVVVVVVVVVVVVVVVVVVVVVVVVVVVVVVVVVVVVVVVVVVVVVVVVVVVVVVVVVVVVVVVVVVVVVVVVVVVVVV1     dVVVVbX  X",
"X  XO    zVVVVVVVVVVVVVVVVVVVVVVVVVVVVVVVVVVVVVVVVVVVVVVVVVVVVVVVVVVVVVVVVVVVVVVVVVVVVVVVVVVVVVVVVVVVVVVVVVVVVVd     ;BVVVVbX  o",
"X  X-    dVVVVVVVVVVVVVVVVVVVVVVVVVVVVVVVVVVVVVVVVVVVVVVVVVVVVVVVVVVVVVVVVVVVVVVVVVVVVVVVVVVVVVVVVVVVVVVVVVVVVc#    XjVVVVVbX  X",
"X  o<    wVVVVVVVVVVVVVVVVVVVVVVVVVVVVVVVVVVVVVVVVVVVVVVVVVVVVVVVVVVVVVVVVVVVVVVVVVVVVVVVVVVVVVVVVVVVVVVVVVVVV,     9VVVVVVbX  X",
"X  X9    <VVVVVVVVVVVVVVVVVVVVVVVVVVVVVVVVVVVVVVVVVVVVVVVVVVVVVVVVVVVVVVVVVVVVVVVVVVVVVVVVVVVVVVVVVVVVVVVVVVV9     =NVVVVVVbX  X",
"X  Xp    +bVVVVVVVVVVVVVVVVVVVVVVVVVVVVVVVVVVVVVVVVVVVVVVVVVVVVVVVVVVVVVVVVVVVVVVVVVVVVVVVVVVVVVVVVVVVVVVVVVr     ojVVVVVVVbX  o",
"o  Xz+    sVVVVVVVVVVVVVVVVVVVVVVVVVVVVVVVVVVVVVVVVVVVVVVVVVVVVVVVVVVVVVVVVVVVVVVVVVVVVVVVVVVVVVVVVVVVVVVVVg      yVVVVVVVVbX  X",
"X  Xn,    1VVVVVVVVVVVVVVVVVVVVVVVVVVVVVVVVVVVVVVVVVVVVVVVVVVVVVVVVVVVVVVVVVVVVVVVVVVVVVVVVVVVVVVVVVVVVVVVj+     4VVVVVVVVVbX  X",
"X  onu    .zVVVVVVVVVVVVVVVVVVVVVVVVVVVVVVVVVVVVVVVVVVVVVVVVVVVVVVVVVVVVVVVVVVVVVVVVVVVVVVVVVVVVVVVVVVVVVj+     -NVVVVVVVVVbX  X",
"X  Xnb@    3VVVVVVVVVVVVVVVVVVVVVVVVVVVVVVVVVVVVVVVVVVVVVVVVVVVVVVVVVVVVVVVVVVVVVVVVVVVVVVVVVVVVVVVVVVVVj+     *cVVVVVVVVVVbX  o",
"X  XnV5    .lVVVVVVVVVVVVVVVVVVVVVVVVVVVVVVVVVVVVVVVVVVVVVVVVVVVVVVVVVVVVVVVVVVVVVVVVVVVVVVVVVVVVVVVVVVpO     @xVVVVVVVVVVVbX  X",
"o  XnVzX    >VVVVVVVVVVVVVVVVVVVVVVVVVVVVVVVVVVVVVVVVVVVVVVVVVVVVVVVVVVVVVVVVVVVVVVVVVVVVVVVVVVVVVVVVVe      @jVVVVVVVVVVVVbX  X",
"X  XnVV3     rVVVVVVVVVVVVVVVVVVVVVVVVVVVVVVVVVVVVVVVVVVVVVVVVVVVVVVVVVVVVVVVVVVVVVVVVVVVVVVVVVVVVVVm4      +jVVVVVVVVVVVVVbX  X",
"X  XnVVb+    XgVVVVVVVVVVVVVVVVVVVVVVVVVVVVVVVVVVVVVVVVVVVVVVVVVVVVVVVVVVVVVVVVVVVVVVVVVVVVVVVVVVVVj=      #kBVVVVVVVVVVVVVbX  o",
"X  XnVVVy     @zVVVVVVVVVVVVVVVVVVVVVVVVVVVVVVVVVVVVVVVVVVVVVVVVVVVVVVVVVVVVVVVVVVVVVVVVVVVVVVVVVme.      =cVVVVVVVVVVVVVVVbX  X",
"X  onVVVV,     #zVVVVVVVVVVVVVVVVVVVVVVVVVVVVVVVVVVVVVVVVVVVVVVVVVVVVVVVVVVVVVVVVVVVVVVVVVVVVVVBj;       2vVVVVVVVVVVVVVVVBbX  X",
"X  XnVVVVb$     #zVVVVVVVVVVVVVVVVVVVVVVVVVVVVVVVVVVVVVVVVVVVVVVVVVVVVVVVVVVVVVVVVVVVVVVVVVVVBz6.       9BVVVVVVVVVVVVVVVVVbX  X",
"X  XnVVVVVjX     #dVVVVVVVVVVVVVVVVVVVVVVVVVVVVVVVVVVVVVVVVVVVVVVVVVVVVVVVVVVVVVVVVVVVVVVVVVbe@       @dVBVVVVVVVVVVVVVVVVVmX  o",
"o  XnVVVVVVsX     .eBVBBNVBBVVVVVVVVVVVVVVVVVVVVBVNVVVVVVVVVVVVVVVVVVVVVVVVVBNVVVVVVVVVVBVz5+        2vBBVVVVVVVVVVVVVVVVVVbX  X",
"X  XnVVVVVVVs.      >hy*@0mVVVVVVVVVVVVVVVVVVVVVz2+:dVVVVVVVVVVVVVVVVVVVVVVr&#9nVVVVVVVNs2o        $dx3@=sVVVVVVVVVVVVVVVVVbX  X",
"X  onVVVVVVVVso           =dBBVVVVVVVVVVVVVVVVneo    5cVVVVVVVVVVVVVVVVVVj,    &aBVVbf5$         o0zp#    5cVVVVVVVVVVVVVVVbX  X",
"X  XnVVVVVVVVVz;            >pcVVVVVVVVVVVVBlw$       @8jBVVVVVVVVVVVVmd1.       :0<+          +2au*       +3jMVVVVVVVVVVVVbX  o",
"X  Xnvglvvvvvcje.             o<wgzvvvcvjs0:.            ;5ajcvvvvzhu2&                       O><+            *5pjcvcvvheqfbo  X",
"o  Xu# X#@@@#+                    o#@###.                    +#@##o                                               ####@    9X  X",
"X  X+                  %=                         >X                        #;                         :o                  .X  X",
"X  X.                #ebBy%                     :dVl2.                    +0vBr&                     :dVx5o                +X  o",
"X  X;             o<ibVVBVMp<o               #5jBVVVVlq*.              X,rcVVVVNs2o               @3gBVVVVxe:.            oyX  X",
"X  ol5&@o.X o@#,7pvVVVVVBVVVVbd0<%@o. .@+;2rjNVBVVVVVVVBzy3;+@X..o@@,5pcVVVBVVVVBBvfw1*+O...+@*2ejMVVVVVVVBVVzu4>@@o. +@>9kbX  X",
"X  XnVNNxjjjcNNVVVVVVVNspbVVVVVVBBNcjjjmNBVVVVVVVzpjVVVVVVVBMNzjjcNNBVVVVVVBdabVVVVVBVBmvjjjbNBVVVVVVBcphVVVVVVVBNmzhjvNVVVbX  X",
"X  XmVVVVVVVVVVVVVVVVg-  %pVVVVVVVVVVVVVVBVVVVVm7.  <xVVVVVVVVBVVVVVBVVVVVg*  #uVVVVBVBBBVBBVVBBVVVBN0o  <xVVVVVVVVVVVBVVVVbX  o",
"o  XnVVVVVVVVVBVVVVk5      <gVVVVVVVVVVVVVVVBMu*     +wbVVVVVVVVVVVVVBVVk5.     ,gVVVVVVVVVVVVVVVVmp-     +ecVVVVVVVVVVVVVVbX  X",
"X  XnVVVVVVVVVBBzp<.         :tkNBVVVVVVVVmg7*         #5dbBVVVVVVVVBca<X         ;wjNVVVVVVVVVmgq%         +4svBVVVVVVVBNBbX  X",
"X  ovu25ryyrre3=o              X%2qryryr7,@               @;4ettryq2*o              .%<qttttr8<#.              +>5rrryr3%$2zX  X",
"X  X1                                                                                                                      ;X  o",
"X  XX                 o9e#                       =u<                       X5y@                       ;y2                   X  X",
"X  XX               @8xVVxq&                   :pNVVg<o                  #5zVVce&                   :uNBBj1o               ;X  X",
"X  oq           .%3sbVVVVVVNs6*o           @>qgVVVVVVVcr,@           X%3pbBBVVVVMs6=o           +:qgBVBVVVBcu,#          o<lX  X",
"o  ong51*ooo;23ujNBVBVVVVVVVVVBla51,oo@<<wdcVVVVVVVVVVVVBbje<2*oo>21ukbVVVVVVVVVVVBBzs8<,Oo+1<0scBVVVVVVVVBVVVmgr12%oo;2rzVbX  o",
"X  XnVVVVVVVVVVVVVVVVVVVVVVVVVVVVVVVVVVVVVVVVVVVVVVVVVVVVVVVVVVVVVVVVVVVVVVVVVVVVVVVVVVVVVVVVVVVBVVVVVVVVVVVVVVVVVVVVVVVVVVbX  X",
"X  XnVVVVVVVVVVVVVVVVVVVVVVVVVVVVVVVVVVVVVVVVVVVVVVVVVVVVVVVVVVVVVVVVVVVVVVVVVVVVVVVVVVVVVVVVVVVVVVVVVVVVVVVVVVVVVVVVVVVVVVbX  X",
"X  XnVVVVVVVVVVVVVVVVVVVVVVVVVVVVVVVVVVVVVVVVVVVVVVVVVVVVVVVVVVVVVVVVVVVVVVVVVVVVVVVVVVVVVVVVVVVVVVVVVVVVVVVVVVVVVVVVVVVVVVbX  o",
"X  onVVVVVVVVVVVVVVVVVVVVVVVVVVVVVVVVVVVVVVVVVVVVVVVVVVVVVVVVVVVVVVVVVVVVVVVVVVVVVVVVVVVVVVVVVVVVVVVVVVVVVVVVVVVVVVVVVVVVVVbX  X",
"X  obVVVVVVVVVVVVVVVVVVVVVVVVVVVVVVVVVVVVVVVVVVVVVVVVVVVVVVVVVVVVVVVVVVVVVVVVVVVVVVVVVVVVVVVVVVVVVVVVVVVVVVVVVVVVVVVVVVVVVVbX  X",
"o  XnVVVVVVVVVVVVVVVVVVVVVVVVVVVVVVVVVVVVVVVVVVVVVVVVVVVVVVVVVVVVVVVVVVVVVVVVVVVVVVVVVVVVVVVVVVVVVVVVVVVVVVVVVVVVVVVVVVVVVVbX  X",
"X  XnVVVVVVVVVVVVVVVVVVVVVVVVVVVVVVVVVVVVVVVVVVVVVVVVVVVVVVVVVVVVVVVVVVVVVVVVVVVVVVVVVVVVVVVVVVVVVVVVVVVVVVVVVVVVVVVVVVVVVVbX  X",
"X  XnVVVVVVVVVVVVVVVVVVVVVVVVVVVVVVVVVVVVVVVVVVVVVVVVVVVVVVVVVVVVVVVVVVVVVVVVVVVVVVVVVVVVVVVVVVVVVVVVVVVVVVVVVVVVVVVVVVVVVVbX  o",
"X  XnVVVVVVVVVVVVVVVVVVVVVVVVVVVVVVVVVVVVVVVVVVVVVVVVVVVVVVVVVVVVVVVVVVVVVVVVVVVVVVVVVVVVVVVVVVVVVVVVVVVVVVVVVVVVVVVVVVVVVVbX  X",
"o  XnVVVVVVVVVVVVVVVVVVVVVVVVVVVVVVVVVVVVVVVVVVVVVVVVVVVVVVVVVVVVVVVVVVVVVVVVVVVVVVVVVVVVVVVVVVVVVVVVVVVVVVVVVVVVVVVVVVVVVVbX  X",
"X  XnVVVVVVVVVVVVVVVVVVVVVVVVVVVVVVVVVVVVVVVVVVVVVVVVVVVVVVVVVVVVVVVVVVVVVVVVVVVVVVVVVVVVVVVVVVVVVVVVVVVVVVVVVVVVVVVVVVVVVVbX  X",
"X  XnVVVVVVVVVVVVVVVVVVVVVVVVVVVVVVVVVVVVVVVVVVVVVVVVVVVVVVVVVVVVVVVVVVVVVVVVVVVVVVVVVVVVVVVVVVVVVVVVVVVVVVVVVVVVVVVVVVVVVVbX  o",
"X  XnVVVVVVVVVVVVVVVVVVVVVVVVVVVVVVVVVVVVVVVVVVVVVVVVVVVVVVVVVVVVVVVVVVVVVVVVVVVVVVVVVVVVVVVVVVVVVVVVVVVVVVVVVVVVVVVVVVVVVVbX  X",
"X  onVVVVVVVVVVVVVVVVVVVVVVVVVVVVVVVVVVVVVVVVVVVVVVVVVVVVVVVVVVVVVVVVVVVVVVVVVVVVVVVVVVVVVVVVVVVVVVVVVVVVVVVVVVVVVVVVVVVVVVbX  X",
"X  XnVVVVVVVVVVVVVVVVVVVVVVVVVVVVVVVVVVVVVVVVVVVVVVVVVVVVVVVVVVVVVVVVVVVVVVVVVVVVVVVVVVVVVVVVVVVVVVVVVVVVVVVVVVVVVVVVVVVVVVbX  X",
"X  XnVVVVVVVVVVVVVVVVVVVVVVVVVVVVVVVVVVVVVVVVVVVVVVVVVVVVVVVVVVVVVVVVVVVVVVVVVVVVVVVVVVVVVVVVVVVVVVVVVVVVVVVVVVVVVVVVVVVVVVbX  o",
"o  obVVVVVVVVVVVVVVVVVVVVVVVVVVVBVVVVVVVVVVVVVVVVVVVVVVVVVVVVVVVVVVVVVVVVVVVVVVVVVVVVVVVVVVVVVVVVVVVVVVVVVVVVVVVVVVVVVVVVVVbX  X",
"X  XnVVVVVVVVVVVVVVVVVVVVVVVVVVVBBVVVVVBVVVVVVVBVVVVVVVVVVVVVVVVVVVVVVVVVVVVVVVVVVVVVVVBVVVVVVVBVVVVVVVVVVVVVVVVVVVVVVVVVVVbX  X",
"X  XmVVVBVBBVVVVVVVVVVVVVVVVBBVVBBBBVBBBVVVVVVBBVVVVVVVVBVBBVVVVVVVVVVVVVVVVVVVVBVBBVBBBVVVVVVBBVVVVVVVVBVBBVVVVVVVVVVVVVVVMX  X",
"X  XxnbbbbbmbbbbbbbbbbbbbbbbbbmbmbbmmbbbbmbbbbbmbbbbbbbbbbbmbbbbbbbbbbbbbbbbbbbbbbbmmbbbbmbbbbbmbbbbbbbbbbbmbbbbbbbbbbbbbbnzX  o",
"X   XXXXXXXXXXXXXXXXXXXXXXXXXXXXXXXXXXXX.XXXXXXXXXXXXXXXXXXXXXXXXXXXXXXXXXXXXXXXXXXXXXXX.XXXXXXXXXXXXXXXXXXXXXXXXXXXXXXXXXXX   X",
"X                                                                                                                              X",
"X                                                                                                                              .",
"@XXXoXXXXXoXXXXXoXXXXXoXXXXXoXXXXXoXXXXXoXXXXXoXXXXXoXXXXXoXXXXXoXXXXXoXXXXXoXXXXXoXXXXXoXXXXXoXXXXXoXXXXXoXXXXXoXXXXXoXXXXXXoX#"
};
