/* XPM */
static char const * AAA_SHIP_ICON_xpm[] = {
/* columns rows colors chars-per-pixel */
"16 16 39 1 ",
"  c gray17",
". c #323232",
"X c #3A3A3A",
"o c #3E3E3E",
"O c gray26",
"+ c gray28",
"@ c #4B4B4B",
"# c #4C4C4C",
"$ c #505050",
"% c gray34",
"& c #585858",
"* c #5D5D5D",
"= c #606060",
"- c gray42",
"; c #6F6F6F",
": c gray44",
"> c gray47",
", c #7E7E7E",
"< c #808080",
"1 c #888888",
"2 c gray56",
"3 c #909090",
"4 c #9B9B9B",
"5 c #A0A0A0",
"6 c #A5A5A5",
"7 c #B7B7B7",
"8 c gray72",
"9 c gray75",
"0 c #C3C3C3",
"q c #C8C8C8",
"w c gray82",
"e c gray84",
"r c gainsboro",
"t c gray91",
"y c #EFEFEF",
"u c gray95",
"i c gray96",
"p c #F8F8F8",
"a c gray100",
/* pixels */
"aaaaaaaaaaaaaaaa",
"aaaaaaaaaaaaaaaa",
"aaaaaaaaaaaaaaaa",
"aaaaaaaaaaaaaaaa",
"ayqtaaiqqwaaaaaa",
"a7O+ta2;1*4aaaaa",
"aaX3o8X787.7aaaa",
"a5-45555555$qaaa",
"+ %&&&&&&&&O+%%+",
"%54ttttttte#r2u@",
"&u:::::::::ri00>",
"#aaaaaaaaaaaau+y",
";qaaaaaaaaaat@qa",
"y+1rae6ip69< >ua",
"*&<;$;,&&,:#;<&=",
"*$&@%#&$$%#$@&$*"
};
